<?xml version="1.0" encoding="UTF-8"?>
<svg width="200px" height="49px" viewBox="0 0 200 49" version="1.1" xmlns="http://www.w3.org/2000/svg" xmlns:xlink="http://www.w3.org/1999/xlink">
    <!-- Generator: Sketch 49.3 (51167) - http://www.bohemiancoding.com/sketch -->
    <title>Group</title>
    <desc>Created with Sketch.</desc>
    <defs></defs>
    <g id="Page-1" stroke="none" stroke-width="1" fill="none" fill-rule="evenodd">
        <g id="Group" fill-rule="nonzero">
            <g id="g10" transform="translate(100.000000, 24.531531) scale(-1, 1) rotate(-180.000000) translate(-100.000000, -24.531531) translate(0.000000, 0.531531)">
                <g id="g12">
                    <path d="M95.0252228,39.5456747 C95.369367,39.8192783 95.54234,40.2255846 95.54234,40.7690981 C95.54234,41.3001341 95.369367,41.7032872 95.0252228,41.9733773 C94.6999976,42.3192782 94.2972949,42.4933323 93.8189166,42.4933323 L73.3923405,42.4933323 C72.8774757,42.4933323 72.4531513,42.3279269 72.1121604,41.9969359 C71.7725207,41.6677017 71.6045027,41.2598638 71.6045027,40.7690981 C71.6045027,40.2366657 71.7711694,39.80099 72.1058541,39.4675666 C72.4400883,39.1340981 72.8684666,38.9676567 73.3941423,38.9676567 L89.5716194,38.9676567 L72.1058541,21.5728823 C71.7702685,21.2420715 71.6027009,20.8321166 71.6027009,20.3543689 C71.6027009,19.826486 71.7693676,19.4015761 72.1040523,19.0663509 C72.4387369,18.7373419 72.8666648,18.5657653 73.3923405,18.5657653 L93.8189166,18.5657653 C94.3094571,18.5657653 94.7180157,18.7346842 95.0486463,19.0713058 C95.3774751,19.4138734 95.54234,19.8393689 95.54234,20.3526121 C95.54234,20.843558 95.3743219,21.2544139 95.0405382,21.5866211 C94.7072048,21.9204049 94.2972949,22.0893238 93.8189166,22.0893238 L77.5626107,22.0893238 L95.0252228,39.5456747" id="path14" fill="#FFFFFF"></path>
                    <path d="M111.307655,20.4071617 C111.307655,19.9281977 111.47297,19.5226121 111.809457,19.1886482 C112.144141,18.8557653 112.55315,18.689459 113.035583,18.689459 C113.767565,18.689459 114.304952,19.0272968 114.651348,19.7086031 L123.251799,36.9348189 L131.74369,19.896531 C132.085132,19.0888734 132.667564,18.689459 133.485132,18.689459 C133.964411,18.689459 134.371618,18.8548644 134.708555,19.1904049 C135.042339,19.5212157 135.211258,19.9281977 135.211258,20.4089184 C135.211258,20.7314409 135.147744,20.9848193 135.02297,21.1757652 L124.929276,41.4145035 C124.573871,42.1334674 124.01261,42.4933323 123.250447,42.4933323 C122.588285,42.4933323 122.035132,42.085089 121.586033,41.2748188 L111.683781,21.5631977 C111.430628,21.041486 111.307655,20.6566662 111.307655,20.4071617" id="path16" fill="#FFFFFF"></path>
                    <path d="M174.766212,40.7708548 C174.766212,41.2492782 174.597743,41.6582422 174.263509,41.9911251 C173.928824,42.324053 173.518464,42.4924314 173.038734,42.4924314 C172.513059,42.4924314 172.085581,42.3272061 171.74414,41.9994134 C171.403599,41.669999 171.236032,41.2598638 171.236032,40.7701792 L171.236032,30.5741434 C171.236032,29.1664858 170.862158,27.8149543 170.117563,26.5139183 C169.373419,25.2168012 168.361708,24.1709003 167.072068,23.3760805 C165.785581,22.5816661 164.363509,22.1918913 162.805401,22.1918913 C161.394591,22.1918913 160.034681,22.5622967 158.732428,23.3013057 C157.431077,24.0431526 156.381978,25.0503147 155.584681,26.334639 C154.790537,27.6178822 154.392338,29.0313506 154.392338,30.5741434 L154.392338,40.7708548 C154.392338,41.2607197 154.222068,41.669999 153.88378,42.0002692 C153.54369,42.3279269 153.109005,42.4933323 152.589185,42.4933323 C152.105852,42.4933323 151.698645,42.3245485 151.361708,41.9922062 C151.028825,41.6590981 150.860807,41.2501791 150.860807,40.7715756 L150.860807,30.5840082 C150.860807,28.4995939 151.411708,26.5449092 152.515312,24.721621 C153.616663,22.8960805 155.086032,21.4347742 156.917564,20.3341436 C158.747293,19.2402247 160.712158,18.689459 162.803149,18.689459 C164.884681,18.689459 166.845041,19.238468 168.688735,20.3341436 C170.528374,21.4347742 171.999545,22.8960805 173.104951,24.721621 C174.209906,26.5449092 174.762158,28.4995939 174.762158,30.5840082 L174.762158,40.7708548 L174.766212,40.7708548" id="path18" fill="#FFFFFF"></path>
                    <path d="M196.623869,19.1886482 C196.959455,18.8557653 197.367112,18.689459 197.848193,18.689459 C198.372067,18.689459 198.801797,18.8499545 199.14459,19.1798644 C199.482427,19.5089184 199.653599,19.9167563 199.653599,20.4071617 L199.653599,40.7566206 C199.653599,41.2581071 199.482427,41.6707197 199.14459,42.0018458 C198.803599,42.3279269 198.372067,42.4933323 197.848193,42.4933323 C197.367112,42.4933323 196.961256,42.3256296 196.623869,41.9922062 C196.288734,41.6575215 196.121166,41.247026 196.121166,40.7566206 L196.121166,20.4071617 C196.121166,19.9273418 196.287833,19.5212157 196.623869,19.1886482" id="path20" fill="#FFFFFF"></path>
                    <path d="M71.887836,1.56127023 C72.3207189,1.28554501 72.9405387,1.07386484 73.6049531,1.07386484 C74.5896378,1.07386484 75.1662143,1.58431978 75.1662143,2.3495585 C75.1662143,3.03490983 74.7675657,3.44277919 73.7594576,3.82108549 C72.5418901,4.26485124 71.7882865,4.90711699 71.7882865,5.94878364 C71.7882865,7.11094577 72.7513495,7.97454935 74.2022504,7.97454935 C74.9540522,7.97454935 75.5202684,7.79720701 75.8414395,7.61067549 L75.5756738,6.82504487 C75.3441423,6.96981965 74.8445927,7.18099081 74.1707189,7.18099081 C73.1504486,7.18099081 72.7635117,6.57252236 72.7635117,6.06139624 C72.7635117,5.3628377 73.2175657,5.0202251 74.2486468,4.62202691 C75.5108089,4.1232071 76.1409891,3.52636027 76.1409891,2.42926571 C76.1409891,1.27709907 75.2995477,0.269742336 73.5382864,0.269742336 C72.8189171,0.269742336 72.0324306,0.490918907 71.633782,0.757144125 L71.887836,1.56127023" id="path22" fill="#FFFFFF"></path>
                    <path d="M91.4995473,1.05275223 C93.0274752,1.05275223 93.8909886,2.45812156 93.8909886,4.15452692 C93.8909886,5.63729716 93.1162139,7.18752234 91.5103581,7.18752234 C89.9045023,7.18752234 89.1076554,5.69274761 89.1076554,4.0771035 C89.1076554,2.50351796 89.9711689,1.05275223 91.4878356,1.05275223 L91.4995473,1.05275223 Z M91.4549527,0.267631074 C89.4729707,0.267631074 88.1004482,1.7963468 88.1004482,4.05422963 C88.1004482,6.42382867 89.5617095,7.97454935 91.5540518,7.97454935 C93.6036013,7.97454935 94.9211688,6.41328813 94.9211688,4.19974764 C94.9211688,1.64097744 93.3599076,0.267631074 91.4657635,0.267631074 L91.4549527,0.267631074 Z" id="path24" fill="#FFFFFF"></path>
                    <polyline id="path26" fill="#FFFFFF" points="107.236934 7.85436917 111.256754 7.85436917 111.256754 7.04463946 108.212159 7.04463946 108.212159 4.56450439 111.025673 4.56450439 111.025673 3.7668918 108.212159 3.7668918 108.212159 0.38868963 107.236934 0.38868963 107.236934 7.85436917"></polyline>
                    <polyline id="path28" fill="#FFFFFF" points="125.132429 7.03319802 122.862159 7.03319802 122.862159 7.85351332 128.388736 7.85351332 128.388736 7.03319802 126.108105 7.03319802 126.108105 0.38868963 125.13333 0.38868963 125.132429 7.03319802 125.132429 7.03319802"></polyline>
                    <path d="M141.950897,0.38868963 L140.057204,7.85436917 L141.076573,7.85436917 L141.962159,4.0771035 C142.18378,3.13573416 142.382879,2.21706301 142.515312,1.49510807 L142.538285,1.49510807 C142.659005,2.23747292 142.892339,3.12429722 143.145492,4.08766206 L144.141438,7.85351332 L145.148645,7.85351332 L146.058555,4.06337828 C146.268915,3.16652695 146.467564,2.29096391 146.578375,1.50636933 L146.599546,1.50636933 C146.756303,2.32386481 146.964411,3.15420713 147.198195,4.08766206 L148.184231,7.85351332 L149.171167,7.85351332 L147.055852,0.38692972 L146.048195,0.38692972 L145.106753,4.26221161 C144.87387,5.22558545 144.718014,5.95490976 144.620267,6.70801785 L144.597294,6.70801785 C144.476123,5.95490976 144.299095,5.236126 144.022068,4.27277016 L142.960357,0.385522062 L141.951798,0.385522062 L141.951798,0.38868963 L141.950897,0.38868963" id="path30" fill="#FFFFFF"></path>
                    <path d="M164.199095,3.49063955 L163.455852,5.63819806 C163.299996,6.12558543 163.190086,6.56864848 163.079726,6.9997746 L163.045942,6.9997746 C162.946392,6.56864848 162.82432,6.10270255 162.681077,5.6496395 L161.950897,3.49063955 L164.199095,3.49063955 Z M161.750897,2.73648642 L160.976122,0.38868963 L159.979275,0.38868963 L162.515311,7.85436917 L163.676572,7.85436917 L166.223419,0.38868963 L165.193239,0.38868963 L164.397293,2.73648642 L161.750897,2.73648642 Z" id="path32" fill="#FFFFFF"></path>
                    <path d="M179.359005,4.35247737 L180.345941,4.35247737 C181.373869,4.35247737 182.026572,4.91851339 182.026572,5.76927914 C182.026572,6.73405389 181.329725,7.15495478 180.311707,7.15495478 C179.846392,7.15495478 179.526122,7.10918901 179.359005,7.0660809 L179.359005,4.35247737 Z M178.396392,7.7413962 C178.883779,7.84031512 179.591887,7.90716196 180.245941,7.90716196 C181.275221,7.90716196 181.951797,7.70887368 182.415311,7.28833315 C182.780176,6.96490974 183.002248,6.45639623 183.002248,5.87008994 C183.002248,4.89531519 182.368914,4.24197737 181.595491,3.97627918 L181.595491,3.94372963 C182.161257,3.74401792 182.504049,3.21262605 182.692338,2.43700895 C182.935131,1.39586933 183.113509,0.676202686 183.257203,0.38868963 L182.262158,0.38868963 C182.140536,0.599486471 181.972068,1.23961709 181.77477,2.17342337 C181.552248,3.20083776 181.141887,3.58882423 180.267563,3.62313504 L179.361707,3.62313504 L179.361707,0.38868963 L178.398194,0.38868963 L178.396392,7.7413962 Z" id="path34" fill="#FFFFFF"></path>
                    <polyline id="path36" fill="#FFFFFF" points="199.279274 3.88795035 196.388283 3.88795035 196.388283 1.19773871 199.622067 1.19773871 199.622067 0.38868963 195.413509 0.38868963 195.413509 7.85436917 199.45495 7.85436917 199.45495 7.04463946 196.387382 7.04463946 196.387382 4.68414403 199.278373 4.68414403 199.279274 3.88795035 199.279274 3.88795035"></polyline>
                    <path d="M0,44.5296836 C0,46.3599088 1.49686933,47.8567556 3.32717559,47.8567556 L44.5286025,47.8567556 C46.3590079,47.8567556 47.8558547,46.3599088 47.8558547,44.5296836 L47.8558547,3.32752694 C47.8558547,1.49774771 46.3590079,0 44.5286025,0 L3.32717559,0 C1.49686933,0 0,1.49774771 0,3.32752694 L0,44.5296836" id="path38" fill="#FFFFFF"></path>
                    <path d="M25.0036931,35.8577919 L24.3612607,35.5263054 C24.3604048,35.5263054 21.0406301,33.8802244 21.0406301,33.8802244 C20.1918013,33.4394136 19.2057202,33.0642785 18.2520266,32.7016658 L16.7518464,32.1157199 C16.3316663,31.9416659 15.8111708,31.7252695 15.6300897,31.2853596 C15.5681528,31.1370262 15.5211708,30.8991434 15.6422519,30.6100443 C15.8834681,30.0441434 16.7331978,29.8314407 17.4120266,29.9155398 C18.3299995,30.0276119 19.2657202,30.3156749 20.1187833,30.7463956 L20.1163058,30.7444587 C20.4483328,30.9091884 23.5131526,32.3690983 25.3448642,33.2094586 C22.3117112,29.8463957 12.1922519,20.3091436 8.52405384,16.8536933 C6.33499984,14.7920267 6.16608093,14.6295942 6.1067566,14.5513059 C5.48459446,13.7410357 5.2692341,13.0372069 5.2692341,12.4477474 C5.2692341,11.9247745 5.43900887,11.4940538 5.64382869,11.1628826 C5.97761246,10.6183331 6.68427911,10.3033331 7.74108089,10.2303151 C9.4346394,10.1133331 11.2614412,10.5259457 12.841351,10.9222069 C13.854324,11.1773421 16.4592338,12.0659006 18.5518914,12.7776573 L20.9350445,13.5800447 C22.4296391,14.0494591 23.8916661,14.4897294 25.337657,14.6700897 C26.6689633,14.8275672 27.5258552,14.6530177 27.6842335,14.397342 C27.8068912,14.1981528 27.5364408,13.7204501 27.3569363,13.402297 L27.2163507,13.1494591 C26.8753597,12.4987835 26.8509002,11.8354051 27.1449092,11.2851799 C27.4333326,10.7476574 28.1554497,10.0675673 29.9644587,9.88017993 C29.9619812,9.88017993 31.2989181,9.83792768 31.2989181,9.83792768 L31.6196839,9.83968444 C33.0378821,9.83968444 34.1360352,9.93121597 35.4131523,10.1620718 C36.7608099,10.3966214 38.1895936,10.7444592 39.5711702,11.0805403 L40.2836476,11.2529727 L40.4572963,11.2952249 C41.6223413,11.5662159 42.4565305,11.8068916 42.5718007,12.4095492 C42.6043233,12.5819817 42.5946836,12.9122519 42.1728818,13.2069817 C41.459053,13.7019816 40.4947738,13.4661708 39.64599,13.2585582 L38.8921612,13.1010808 L37.5552693,12.9026123 L35.1972514,12.5955402 C35.1972514,12.5937835 34.6943685,12.5468015 34.6943685,12.5468015 C33.9762604,12.4767564 31.7886028,12.2608555 31.545765,12.7354501 C31.3940983,13.0341889 32.1349091,13.7375222 32.5327469,14.1145942 L32.9551794,14.5289636 L33.9086928,15.3867564 C34.8729721,16.2005401 35.8713505,17.0419816 35.8663955,18.0181977 C35.8630622,18.4733779 35.6438279,18.882477 35.2149991,19.2367112 C34.358828,19.9449094 32.7545938,19.5147292 30.3256749,18.8631527 L29.2926569,18.5868914 C27.4341885,18.104414 19.2349545,15.8803149 14.0728825,14.2412609 C11.8990988,13.5770267 11.5060357,14.0119816 11.4686934,14.0644141 C11.3240988,14.2606303 11.4590538,14.8618915 11.9974772,15.6237834 C12.1663961,15.8349095 13.8152699,17.3460356 15.723378,19.0971617 C31.3874316,33.4513956 33.6870262,36.3008549 32.9129722,37.2573414 C31.3494136,39.1971161 27.0637831,36.9413504 25.0036931,35.8577919" id="path40" fill="#1F305A"></path>
                </g>
            </g>
        </g>
    </g>
</svg>